<svg width="31" height="40" viewBox="0 0 31 40" fill="none" xmlns="http://www.w3.org/2000/svg">
<g clip-path="url(#clip0_340_12)">
<path d="M30.0136 13.636C29.7928 13.816 25.893 16.124 25.893 21.256C25.893 27.192 30.8553 29.292 31.0038 29.344C30.981 29.472 30.2155 32.22 28.3875 35.02C26.7575 37.484 25.0552 39.944 22.4655 39.944C19.8758 39.944 19.2093 38.364 16.2198 38.364C13.3064 38.364 12.2705 39.996 9.90172 39.996C7.53292 39.996 5.8801 37.716 3.97973 34.916C1.7785 31.628 0 26.52 0 21.672C0 13.896 4.81376 9.772 9.55135 9.772C12.0687 9.772 14.1671 11.508 15.7475 11.508C17.2518 11.508 19.5978 9.668 22.4617 9.668C23.5471 9.668 27.4468 9.772 30.0136 13.636ZM21.1021 6.376C22.2865 4.9 23.1243 2.852 23.1243 0.804C23.1243 0.52 23.1015 0.232 23.052 0C21.1249 0.076 18.8323 1.348 17.4499 3.032C16.3645 4.328 15.3515 6.376 15.3515 8.452C15.3515 8.764 15.401 9.076 15.4238 9.176C15.5457 9.2 15.7437 9.228 15.9418 9.228C17.6708 9.228 19.8453 8.012 21.1021 6.376Z" fill="black"/>
</g>
<defs>
<clipPath id="clip0_340_12">
<rect width="31" height="40" fill="white"/>
</clipPath>
</defs>
</svg>
