<svg width="21" height="27" viewBox="0 0 21 27" fill="none" xmlns="http://www.w3.org/2000/svg">
<g clip-path="url(#clip0_340_10)">
<path d="M20.3318 9.2043C20.1822 9.3258 17.5404 10.8837 17.5404 14.3478C17.5404 18.3546 20.902 19.7721 21.0026 19.8072C20.9871 19.8936 20.4686 21.7485 19.2302 23.6385C18.126 25.3017 16.9729 26.9622 15.2186 26.9622C13.4643 26.9622 13.0128 25.8957 10.9876 25.8957C9.01401 25.8957 8.31229 26.9973 6.70762 26.9973C5.10295 26.9973 3.98329 25.4583 2.69595 23.5683C1.20479 21.3489 0 17.901 0 14.6286C0 9.3798 3.26093 6.5961 6.47027 6.5961C8.17555 6.5961 9.59705 7.7679 10.6677 7.7679C11.6867 7.7679 13.2759 6.5259 15.216 6.5259C15.9512 6.5259 18.593 6.5961 20.3318 9.2043ZM14.295 4.3038C15.0973 3.3075 15.6649 1.9251 15.6649 0.5427C15.6649 0.351 15.6494 0.1566 15.6158 0C14.3104 0.0513 12.7574 0.9099 11.8209 2.0466C11.0856 2.9214 10.3994 4.3038 10.3994 5.7051C10.3994 5.9157 10.4329 6.1263 10.4484 6.1938C10.531 6.21 10.6651 6.2289 10.7993 6.2289C11.9705 6.2289 13.4436 5.4081 14.295 4.3038Z" fill="white"/>
</g>
<defs>
<clipPath id="clip0_340_10">
<rect width="21" height="27" fill="white"/>
</clipPath>
</defs>
</svg>
