<svg width="14" height="17" viewBox="0 0 14 17" fill="none" xmlns="http://www.w3.org/2000/svg">
<g clip-path="url(#clip0_86_307)">
<path d="M13.5545 5.7953C13.4548 5.8718 11.6936 6.8527 11.6936 9.0338C11.6936 11.5566 13.9346 12.4491 14.0017 12.4712C13.9914 12.5256 13.6457 13.6935 12.8201 14.8835C12.084 15.9307 11.3152 16.9762 10.1457 16.9762C8.97617 16.9762 8.67518 16.3047 7.32506 16.3047C6.00934 16.3047 5.54152 16.9983 4.47174 16.9983C3.40197 16.9983 2.65553 16.0293 1.7973 14.8393C0.803194 13.4419 0 11.271 0 9.2106C0 5.9058 2.17396 4.1531 4.31351 4.1531C5.45037 4.1531 6.39803 4.8909 7.11179 4.8909C7.79115 4.8909 8.85061 4.1089 10.144 4.1089C10.6342 4.1089 12.3953 4.1531 13.5545 5.7953ZM9.52997 2.7098C10.0649 2.0825 10.4432 1.2121 10.4432 0.3417C10.4432 0.221 10.4329 0.0986 10.4106 0C9.54029 0.0323 8.50491 0.5729 7.88059 1.2886C7.39042 1.8394 6.93292 2.7098 6.93292 3.5921C6.93292 3.7247 6.95528 3.8573 6.9656 3.8998C7.02064 3.91 7.11007 3.9219 7.19951 3.9219C7.98034 3.9219 8.96241 3.4051 9.52997 2.7098Z" fill="black" fill-opacity="0.8"/>
</g>
<defs>
<clipPath id="clip0_86_307">
<rect width="14" height="17" fill="white"/>
</clipPath>
</defs>
</svg>
